<svg xmlns="http://www.w3.org/2000/svg" width="201" height="30" viewBox="0 0 201 30" fill="none"><path d="M26.9088 30H20.459C19.5658 30 18.8425 29.2766 18.8425 28.3835V19.7217C18.8425 19.7217 18.8401 19.7147 18.8355 19.7147H9.68988C9.68988 19.7147 9.6829 19.717 9.6829 19.7217V28.3835C9.6829 29.2766 8.95953 30 8.06637 30H1.61653C0.723368 30 0 29.2766 0 28.3835V21.0474C0 18.5308 2.03985 16.4909 4.55652 16.4909H6.45449C6.45449 16.4909 6.46147 16.4886 6.46147 16.484V13.537C6.46147 13.537 6.45914 13.53 6.45449 13.53H4.55652C2.03985 13.53 0 11.4902 0 8.97348V1.61653C0 0.723368 0.723368 0 1.61653 0H8.06637C8.95953 0 9.6829 0.723368 9.6829 1.61653V10.2993C9.6829 10.2993 9.68522 10.3062 9.68988 10.3062H18.8355C18.8355 10.3062 18.8425 10.3039 18.8425 10.2993V1.61886C18.8425 0.725694 19.5682 0 20.4636 0H26.9088C27.802 0 28.5277 0.723368 28.5277 1.61653L28.537 8.97581C28.537 10.1923 28.0648 11.3343 27.2065 12.1949C26.3483 13.0555 25.2039 13.5277 23.9898 13.5277H22.0732C22.0732 13.5277 22.0662 13.53 22.0662 13.5347V16.4816C22.0662 16.4816 22.0685 16.4886 22.0732 16.4886H23.9712C26.4878 16.4886 28.5277 18.5285 28.5277 21.0451V28.3811C28.5277 29.2743 27.8043 29.9977 26.9111 29.9977L26.9088 30ZM23.6851 26.7762C24.5782 26.7762 25.3016 26.0529 25.3016 25.1597V21.0474C25.3016 20.3125 24.7062 19.7147 23.9688 19.7147H22.0709C22.0709 19.7147 22.0639 19.717 22.0639 19.7217V25.1597C22.0639 26.0529 22.7873 26.7762 23.6804 26.7762H23.6851ZM4.84261 26.7762C5.73577 26.7762 6.45914 26.0529 6.45914 25.1597V19.7217C6.45914 19.7217 6.45682 19.7147 6.45216 19.7147H4.55419C3.8192 19.7147 3.22143 20.3101 3.22143 21.0474V25.1597C3.22143 26.0529 3.9448 26.7762 4.83796 26.7762H4.84261ZM9.68988 16.4909H18.8355C18.8355 16.4909 18.8425 16.4886 18.8425 16.484V13.537C18.8425 13.537 18.8401 13.53 18.8355 13.53H9.68988C9.68988 13.53 9.6829 13.5323 9.6829 13.537V16.484C9.6829 16.484 9.68522 16.4909 9.68988 16.4909ZM22.0732 10.3062H23.9619C24.3131 10.3062 24.6573 10.1783 24.9108 9.93177C25.169 9.68057 25.3132 9.34098 25.3132 8.98046L25.3086 4.84029C25.3086 3.94712 24.5829 3.22376 23.6897 3.22376C22.7942 3.22376 22.0709 3.94945 22.0709 4.84261V10.2969C22.0709 10.2969 22.0732 10.3039 22.0778 10.3039L22.0732 10.3062ZM3.22376 4.84261V8.97348C3.22376 9.70848 3.8192 10.3062 4.55652 10.3062H6.45449C6.45449 10.3062 6.46147 10.3039 6.46147 10.2993V4.84261C6.46147 3.94945 5.7381 3.22608 4.84494 3.22608C3.95178 3.22608 3.22841 3.94945 3.22841 4.84261H3.22376Z" fill="url(#paint0_linear_113_105)"></path><path d="M15.4326 10.3062H9.68522V13.53H15.4326V10.3062Z" fill="url(#paint1_linear_113_105)"></path><path d="M23.9781 16.4909H22.0685V19.7147H23.9781V16.4909Z" fill="url(#paint2_linear_113_105)"></path><path d="M22.0662 13.53H18.8425V16.0513H22.0662V13.53Z" fill="url(#paint3_linear_113_105)"></path><path d="M9.6829 19.7147H6.45914V21.4754H9.6829V19.7147Z" fill="url(#paint4_linear_113_105)"></path><path d="M37.8314 20.7474V8.83393C37.8314 7.22205 38.706 6.31261 40.2388 6.31261C41.7716 6.31261 42.6462 7.22205 42.6462 8.83393V12.8206H48.4145V8.83393C48.4145 7.22205 49.289 6.31261 50.8218 6.31261C52.3546 6.31261 53.2292 7.22205 53.2292 8.83393V20.7474C53.2292 22.3593 52.3546 23.2687 50.8218 23.2687C49.289 23.2687 48.4145 22.3593 48.4145 20.7474V16.6468H42.6462V20.7474C42.6462 22.3593 41.7716 23.2687 40.2388 23.2687C38.706 23.2687 37.8314 22.3593 37.8314 20.7474Z" fill="url(#paint5_linear_113_105)"></path><path d="M55.5016 20.4636V9.11769C55.5016 7.50582 56.3762 6.59637 57.909 6.59637H65.1659C66.4615 6.59637 67.2895 7.2895 67.2895 8.51527C67.2895 9.74104 66.4382 10.4342 65.1659 10.4342H60.3163V13.0695H64.9729C66.1196 13.0695 66.8685 13.6951 66.8685 14.7953C66.8685 15.8955 66.1428 16.5212 64.9729 16.5212H60.3163V19.1448H65.1659C66.4382 19.1448 67.2895 19.838 67.2895 21.0637C67.2895 22.2895 66.4615 22.9826 65.1659 22.9826H57.909C56.3762 22.9826 55.5016 22.0732 55.5016 20.4613V20.4636Z" fill="url(#paint6_linear_113_105)"></path><path d="M68.9712 20.9405C68.9712 20.5195 69.0968 19.9077 69.3108 19.3286L72.9788 9.1991C73.6835 7.21275 74.8744 6.31493 76.7956 6.31493C78.8518 6.31493 80.0333 7.17786 80.7707 9.1991L84.4736 19.3286C84.7015 19.9543 84.7922 20.4078 84.7922 20.9288C84.7922 22.2918 83.7804 23.2687 82.3849 23.2687C80.9893 23.2687 80.2264 22.6221 79.817 21.0312L79.5333 19.917H74.1952L73.9115 20.9498C73.4579 22.5965 72.7299 23.2664 71.425 23.2664C69.8922 23.2664 68.9712 22.3918 68.9712 20.9381V20.9405ZM78.5215 16.3304L76.8189 10.3784H76.7282L75.1047 16.3304H78.5238H78.5215Z" fill="url(#paint7_linear_113_105)"></path><path d="M86.7344 20.4636V8.83393C86.7344 7.22205 87.6089 6.31261 89.1417 6.31261C90.6745 6.31261 91.5491 7.22205 91.5491 8.83393V19.1472H96.08C97.3523 19.1472 98.2036 19.8403 98.2036 21.0661C98.2036 22.2918 97.3756 22.985 96.08 22.985H89.1417C87.6089 22.985 86.7344 22.0755 86.7344 20.4636Z" fill="url(#paint8_linear_113_105)"></path><path d="M101.783 20.7474V10.4342H99.3643C98.092 10.4342 97.2407 9.74104 97.2407 8.51527C97.2407 7.2895 98.0687 6.59637 99.3643 6.59637H109.017C110.312 6.59637 111.14 7.2895 111.14 8.51527C111.14 9.74104 110.289 10.4342 109.017 10.4342H106.598V20.7474C106.598 22.3593 105.723 23.2687 104.191 23.2687C102.658 23.2687 101.783 22.3593 101.783 20.7474Z" fill="url(#paint9_linear_113_105)"></path><path d="M112.562 20.7474V8.83393C112.562 7.22205 113.436 6.31261 114.969 6.31261C116.502 6.31261 117.376 7.22205 117.376 8.83393V12.8206H123.145V8.83393C123.145 7.22205 124.019 6.31261 125.552 6.31261C127.085 6.31261 127.959 7.22205 127.959 8.83393V20.7474C127.959 22.3593 127.085 23.2687 125.552 23.2687C124.019 23.2687 123.145 22.3593 123.145 20.7474V16.6468H117.376V20.7474C117.376 22.3593 116.502 23.2687 114.969 23.2687C113.436 23.2687 112.562 22.3593 112.562 20.7474Z" fill="url(#paint10_linear_113_105)"></path><path d="M130.232 17.1468V8.83393C130.232 7.22205 131.106 6.31261 132.639 6.31261C134.172 6.31261 135.047 7.22205 135.047 8.83393V16.6142C135.047 18.3401 135.898 19.2821 137.454 19.2821C139.01 19.2821 139.861 18.3401 139.861 16.6142V8.83393C139.861 7.22205 140.736 6.31261 142.269 6.31261C143.801 6.31261 144.676 7.22205 144.676 8.83393V17.1468C144.676 20.8823 141.78 23.2687 137.454 23.2687C133.128 23.2687 130.232 20.8846 130.232 17.1468Z" fill="url(#paint11_linear_113_105)"></path><path d="M146.951 20.8846V8.53853C146.951 7.08482 147.746 6.31261 149.223 6.31261C150.098 6.31261 150.768 6.71034 151.461 7.62909L157.015 15.0907H157.106V8.6967C157.106 7.15227 157.945 6.31261 159.378 6.31261C160.811 6.31261 161.651 7.15227 161.651 8.6967V21.0428C161.651 22.4849 160.867 23.2687 159.436 23.2687C158.515 23.2687 157.869 22.8826 157.187 21.9522L151.589 14.3534H151.498V20.8846C151.498 22.4291 150.658 23.2687 149.225 23.2687C147.793 23.2687 146.953 22.4291 146.953 20.8846H146.951Z" fill="url(#paint12_linear_113_105)"></path><path d="M163.918 20.7474V8.83393C163.918 7.22205 164.793 6.31261 166.326 6.31261C167.859 6.31261 168.733 7.22205 168.733 8.83393V20.7474C168.733 22.3593 167.859 23.2687 166.326 23.2687C164.793 23.2687 163.918 22.3593 163.918 20.7474Z" fill="url(#paint13_linear_113_105)"></path><path d="M174.695 20.7474V10.4342H172.276C171.003 10.4342 170.152 9.74104 170.152 8.51527C170.152 7.2895 170.98 6.59637 172.276 6.59637H181.928C183.224 6.59637 184.052 7.2895 184.052 8.51527C184.052 9.74104 183.201 10.4342 181.928 10.4342H179.509V20.7474C179.509 22.3593 178.635 23.2687 177.102 23.2687C175.569 23.2687 174.695 22.3593 174.695 20.7474Z" fill="url(#paint14_linear_113_105)"></path><path d="M190.278 20.7474V17.7935L185.578 10.2853C185.247 9.75268 185.078 9.18282 185.078 8.62692C185.078 7.28718 186.11 6.31028 187.531 6.31028C188.587 6.31028 189.155 6.70802 189.804 7.90123L192.7 13.2393H192.79L195.698 7.8896C196.312 6.76616 196.947 6.31028 197.912 6.31028C199.287 6.31028 200.296 7.27555 200.296 8.58273C200.296 9.16189 200.126 9.71779 199.784 10.2644L195.093 17.7935V20.7474C195.093 22.3593 194.218 23.2687 192.686 23.2687C191.153 23.2687 190.278 22.3593 190.278 20.7474Z" fill="url(#paint15_linear_113_105)"></path><defs><linearGradient id="paint0_linear_113_105" x1="37.5" y1="2.16162e-05" x2="182" y2="22" gradientUnits="userSpaceOnUse"><stop stop-color="#297BF6"></stop><stop offset="0.5" stop-color="#4646F9"></stop><stop offset="1" stop-color="#00C7F2"></stop></linearGradient><linearGradient id="paint1_linear_113_105" x1="37.5" y1="2.16162e-05" x2="182" y2="22" gradientUnits="userSpaceOnUse"><stop stop-color="#297BF6"></stop><stop offset="0.5" stop-color="#4646F9"></stop><stop offset="1" stop-color="#00C7F2"></stop></linearGradient><linearGradient id="paint2_linear_113_105" x1="37.5" y1="2.16162e-05" x2="182" y2="22" gradientUnits="userSpaceOnUse"><stop stop-color="#297BF6"></stop><stop offset="0.5" stop-color="#4646F9"></stop><stop offset="1" stop-color="#00C7F2"></stop></linearGradient><linearGradient id="paint3_linear_113_105" x1="37.5" y1="2.16162e-05" x2="182" y2="22" gradientUnits="userSpaceOnUse"><stop stop-color="#297BF6"></stop><stop offset="0.5" stop-color="#4646F9"></stop><stop offset="1" stop-color="#00C7F2"></stop></linearGradient><linearGradient id="paint4_linear_113_105" x1="37.5" y1="2.16162e-05" x2="182" y2="22" gradientUnits="userSpaceOnUse"><stop stop-color="#297BF6"></stop><stop offset="0.5" stop-color="#4646F9"></stop><stop offset="1" stop-color="#00C7F2"></stop></linearGradient><linearGradient id="paint5_linear_113_105" x1="37.5" y1="2.16162e-05" x2="182" y2="22" gradientUnits="userSpaceOnUse"><stop stop-color="#297BF6"></stop><stop offset="0.5" stop-color="#4646F9"></stop><stop offset="1" stop-color="#00C7F2"></stop></linearGradient><linearGradient id="paint6_linear_113_105" x1="37.5" y1="2.16162e-05" x2="182" y2="22" gradientUnits="userSpaceOnUse"><stop stop-color="#297BF6"></stop><stop offset="0.5" stop-color="#4646F9"></stop><stop offset="1" stop-color="#00C7F2"></stop></linearGradient><linearGradient id="paint7_linear_113_105" x1="37.5" y1="2.16162e-05" x2="182" y2="22" gradientUnits="userSpaceOnUse"><stop stop-color="#297BF6"></stop><stop offset="0.5" stop-color="#4646F9"></stop><stop offset="1" stop-color="#00C7F2"></stop></linearGradient><linearGradient id="paint8_linear_113_105" x1="37.5" y1="2.16162e-05" x2="182" y2="22" gradientUnits="userSpaceOnUse"><stop stop-color="#297BF6"></stop><stop offset="0.5" stop-color="#4646F9"></stop><stop offset="1" stop-color="#00C7F2"></stop></linearGradient><linearGradient id="paint9_linear_113_105" x1="37.5" y1="2.16162e-05" x2="182" y2="22" gradientUnits="userSpaceOnUse"><stop stop-color="#297BF6"></stop><stop offset="0.5" stop-color="#4646F9"></stop><stop offset="1" stop-color="#00C7F2"></stop></linearGradient><linearGradient id="paint10_linear_113_105" x1="37.5" y1="2.16162e-05" x2="182" y2="22" gradientUnits="userSpaceOnUse"><stop stop-color="#297BF6"></stop><stop offset="0.5" stop-color="#4646F9"></stop><stop offset="1" stop-color="#00C7F2"></stop></linearGradient><linearGradient id="paint11_linear_113_105" x1="37.5" y1="2.16162e-05" x2="182" y2="22" gradientUnits="userSpaceOnUse"><stop stop-color="#297BF6"></stop><stop offset="0.5" stop-color="#4646F9"></stop><stop offset="1" stop-color="#00C7F2"></stop></linearGradient><linearGradient id="paint12_linear_113_105" x1="37.5" y1="2.16162e-05" x2="182" y2="22" gradientUnits="userSpaceOnUse"><stop stop-color="#297BF6"></stop><stop offset="0.5" stop-color="#4646F9"></stop><stop offset="1" stop-color="#00C7F2"></stop></linearGradient><linearGradient id="paint13_linear_113_105" x1="37.5" y1="2.16162e-05" x2="182" y2="22" gradientUnits="userSpaceOnUse"><stop stop-color="#297BF6"></stop><stop offset="0.5" stop-color="#4646F9"></stop><stop offset="1" stop-color="#00C7F2"></stop></linearGradient><linearGradient id="paint14_linear_113_105" x1="37.5" y1="2.16162e-05" x2="182" y2="22" gradientUnits="userSpaceOnUse"><stop stop-color="#297BF6"></stop><stop offset="0.5" stop-color="#4646F9"></stop><stop offset="1" stop-color="#00C7F2"></stop></linearGradient><linearGradient id="paint15_linear_113_105" x1="37.5" y1="2.16162e-05" x2="182" y2="22" gradientUnits="userSpaceOnUse"><stop stop-color="#297BF6"></stop><stop offset="0.5" stop-color="#4646F9"></stop><stop offset="1" stop-color="#00C7F2"></stop></linearGradient></defs></svg>