<svg width="1377" height="518" viewBox="0 0 1377 518" fill="none" xmlns="http://www.w3.org/2000/svg">
<path fill-rule="evenodd" clip-rule="evenodd" d="M282.004 296.784C244.152 296.784 213.492 266.986 213.492 230.198C213.492 193.411 244.152 163.613 282.004 163.613C313.526 173.803 343.783 193.411 343.783 230.198C343.783 266.986 319.791 296.784 282.004 296.784ZM276.039 385.092L343.783 309.491C348.817 304.027 353.982 298.499 358.82 292.972C365.488 285.348 370.652 276.834 374.444 267.812C379.413 256.184 382.028 243.541 382.028 230.579C382.028 203.767 370.849 179.433 352.74 161.897C334.631 144.298 309.2 126.092 281.612 126.092C254.024 126.092 221.199 143.916 203.09 161.516C184.982 179.115 173.803 203.386 173.803 230.198C173.803 243.16 174.528 256.184 179.497 267.812C183.615 277.533 193.744 291.826 201.066 299.895C205.446 304.66 208.458 306.632 213.492 312.16L276.039 385.092Z" fill="#FCBB33"/>
<path fill-rule="evenodd" clip-rule="evenodd" d="M282.004 296.784C244.152 296.784 213.492 266.986 213.492 230.198C213.492 193.411 244.152 163.613 282.004 163.613C313.526 173.803 343.783 193.411 343.783 230.198C343.783 266.986 319.791 296.784 282.004 296.784ZM276.039 385.092L343.783 309.491C348.817 304.027 353.982 298.499 358.82 292.972C365.488 285.348 370.652 276.834 374.444 267.812C379.413 256.184 382.028 243.541 382.028 230.579C382.028 203.767 370.849 179.433 352.74 161.897C334.631 144.298 309.2 126.092 281.612 126.092C254.024 126.092 221.199 143.916 203.09 161.516C184.982 179.115 173.803 203.386 173.803 230.198C173.803 243.16 174.528 256.184 179.497 267.812C183.615 277.533 193.744 291.826 201.066 299.895C205.446 304.66 208.458 306.632 213.492 312.16L276.039 385.092Z" fill="#FCBB33"/>
<path fill-rule="evenodd" clip-rule="evenodd" d="M279.039 103.522L250.274 72.2625C228.178 48.1189 197.255 33.442 164.11 31.536C95.4014 27.4697 35.7796 78.8703 31.661 145.647C29.6998 177.796 41.0096 209.564 62.9755 233.644L279.366 470.633L495.756 233.644C517.722 209.564 529.032 177.796 527.071 145.647C522.952 78.8703 463.331 27.4697 394.622 31.4724C361.477 33.3785 330.489 48.1189 308.458 72.199L279.693 103.459C316.041 103.522 348.859 117.881 372.721 141.008C396.583 164.199 411.423 196.285 411.423 231.738C411.423 248.638 407.958 265.285 401.355 280.788C396.321 292.542 389.588 303.534 381.22 313.382C375.598 319.989 368.603 326.661 362.653 333.205L279.431 424.506L192.091 328.884C187.057 323.357 181.696 318.464 176.924 312.746C168.883 303.089 162.28 292.351 157.442 280.851C150.839 265.412 147.374 248.766 147.374 231.801C147.374 196.348 162.149 164.263 186.011 141.072C209.873 117.945 242.756 103.586 279.039 103.522ZM279.431 195.522C299.828 195.522 316.433 211.597 316.433 231.484C316.433 251.307 299.894 267.445 279.431 267.445C259.034 267.445 242.429 251.371 242.429 231.484C242.429 211.597 258.969 195.522 279.431 195.522ZM279.431 298.006C241.579 298.006 210.919 268.208 210.919 231.42C210.919 194.633 241.579 164.834 279.431 164.834C317.283 164.834 347.944 194.633 347.944 231.42C347.944 268.208 317.218 298.006 279.431 298.006ZM279.431 378.379L341.211 310.713C346.244 305.249 351.409 299.721 356.247 294.194C362.915 286.569 368.08 278.056 371.871 269.034C376.84 257.406 379.455 244.763 379.455 231.801C379.455 204.989 368.276 180.655 350.167 163.119C332.058 145.52 307.085 134.655 279.497 134.655C251.909 134.655 226.87 145.52 208.761 163.119C190.652 180.718 179.473 204.989 179.473 231.801C179.473 244.763 182.088 257.406 187.057 269.034C191.175 278.755 197.059 287.904 204.381 295.973C208.761 300.738 210.461 302.771 215.495 308.299L279.431 378.379ZM279.431 57.8399L284.988 51.931C312.576 21.7514 351.344 3.38953 392.857 0.975159C479.217 -4.04418 553.482 59.9366 558.647 143.868C561.131 184.149 547.01 223.796 519.487 254.039L279.431 516.76L39.4406 253.975C11.8525 223.732 -2.20311 184.149 0.281132 143.804C5.38036 59.873 79.6461 -4.10772 166.006 0.911622C207.519 3.32599 246.286 21.6244 273.875 51.8675L279.431 57.8399Z" fill="black"/>
<path d="M626.796 270.661V0H689.045V270.661H626.796Z" fill="black"/>
<path d="M740.593 270.661V0H923.545V54.8947H802.842V113.22H902.29V163.922H802.842V270.661H740.593Z" fill="black"/>
<path d="M1188.61 0V270.661H1126.36V159.728H1018.94V270.661H956.695V0H1018.94V104.834H1126.36V0H1188.61Z" fill="black"/>
<path d="M629.78 384.496V303.673H648.368V384.496H629.78Z" fill="black"/>
<path d="M719.639 384.496H701.504V350.915C701.504 346.969 700.749 344.123 699.237 342.377C697.802 340.556 695.875 339.645 693.457 339.645C690.963 339.645 688.432 340.632 685.863 342.605C683.294 344.578 681.48 347.12 680.422 350.232V384.496H662.287V324.733H678.609V334.75C680.8 331.259 683.898 328.527 687.903 326.554C691.908 324.581 696.517 323.594 701.731 323.594C705.585 323.594 708.683 324.315 711.025 325.757C713.443 327.123 715.257 328.945 716.466 331.221C717.75 333.422 718.581 335.851 718.959 338.507C719.413 341.163 719.639 343.743 719.639 346.248V384.496Z" fill="black"/>
<path d="M754.47 385.634C749.332 385.634 744.345 384.8 739.509 383.13C734.749 381.384 730.706 378.918 727.381 375.731L733.615 364.233C740.945 369.622 747.708 372.316 753.904 372.316C756.246 372.316 758.06 371.936 759.344 371.177C760.629 370.418 761.271 369.242 761.271 367.648C761.271 365.979 760.402 364.803 758.664 364.12C756.926 363.361 754.357 362.488 750.957 361.501C746.423 359.984 742.645 358.504 739.622 357.062C736.6 355.62 734.333 353.874 732.822 351.825C731.311 349.776 730.555 347.044 730.555 343.629C730.555 337.634 732.784 332.815 737.242 329.172C741.7 325.454 747.745 323.594 755.377 323.594C759.458 323.594 763.425 324.24 767.278 325.53C771.207 326.82 774.872 328.983 778.273 332.018L771.245 343.402C767.845 341.049 764.822 339.342 762.178 338.279C759.533 337.217 756.964 336.685 754.47 336.685C752.506 336.685 750.843 337.065 749.483 337.824C748.123 338.507 747.443 339.721 747.443 341.467C747.443 343.136 748.199 344.388 749.71 345.223C751.221 345.982 753.564 346.817 756.737 347.727C761.573 349.169 765.616 350.649 768.865 352.167C772.19 353.609 774.646 355.43 776.232 357.631C777.895 359.756 778.726 362.602 778.726 366.169C778.726 372.24 776.535 377.021 772.152 380.512C767.769 383.927 761.876 385.634 754.47 385.634Z" fill="black"/>
<path d="M826.122 381.309C823.629 382.371 820.757 383.358 817.508 384.268C814.335 385.179 811.123 385.634 807.874 385.634C804.851 385.634 802.093 385.141 799.6 384.154C797.106 383.092 795.104 381.384 793.593 379.032C792.081 376.679 791.326 373.568 791.326 369.697V338.507H783.732V324.733H791.326V305.722H809.461V324.733H821.588V338.507H809.461V363.437C809.461 365.41 809.952 366.852 810.934 367.762C811.916 368.597 813.163 369.014 814.674 369.014C816.035 369.014 817.433 368.787 818.868 368.331C820.304 367.876 821.551 367.383 822.609 366.852L826.122 381.309Z" fill="black"/>
<path d="M833.188 317.903V301.397H851.323V317.903H833.188ZM833.188 384.496V324.733H851.323V384.496H833.188Z" fill="black"/>
<path d="M902.275 381.309C899.781 382.371 896.91 383.358 893.661 384.268C890.487 385.179 887.276 385.634 884.027 385.634C881.004 385.634 878.246 385.141 875.753 384.154C873.259 383.092 871.257 381.384 869.745 379.032C868.234 376.679 867.478 373.568 867.478 369.697V338.507H859.885V324.733H867.478V305.722H885.614V324.733H897.741V338.507H885.614V363.437C885.614 365.41 886.105 366.852 887.087 367.762C888.069 368.597 889.316 369.014 890.827 369.014C892.187 369.014 893.585 368.787 895.021 368.331C896.457 367.876 897.704 367.383 898.761 366.852L902.275 381.309Z" fill="black"/>
<path d="M908.775 362.981V324.733H926.91V358.997C926.91 366.51 929.668 370.267 935.184 370.267C937.602 370.267 939.944 369.622 942.211 368.331C944.478 366.965 946.48 364.727 948.218 361.615V324.733H966.353V364.233C966.353 366.055 966.618 367.345 967.147 368.104C967.751 368.863 968.771 369.28 970.207 369.356V384.496C968.469 384.8 966.995 385.027 965.786 385.179C964.577 385.331 963.482 385.407 962.5 385.407C956.001 385.407 952.299 382.864 951.392 377.78L951.052 374.137C948.332 378.083 944.931 381.005 940.851 382.902C936.846 384.724 932.35 385.634 927.363 385.634C921.318 385.634 916.709 383.699 913.535 379.829C910.361 375.958 908.775 370.343 908.775 362.981Z" fill="black"/>
<path d="M1018.61 381.309C1016.11 382.371 1013.24 383.358 1009.99 384.268C1006.82 385.179 1003.61 385.634 1000.36 385.634C997.337 385.634 994.579 385.141 992.085 384.154C989.591 383.092 987.589 381.384 986.078 379.032C984.566 376.679 983.811 373.568 983.811 369.697V338.507H976.217V324.733H983.811V305.722H1001.95V324.733H1014.07V338.507H1001.95V363.437C1001.95 365.41 1002.44 366.852 1003.42 367.762C1004.4 368.597 1005.65 369.014 1007.16 369.014C1008.52 369.014 1009.92 368.787 1011.35 368.331C1012.79 367.876 1014.04 367.383 1015.09 366.852L1018.61 381.309Z" fill="black"/>
<path d="M1053.46 385.634C1046.73 385.634 1040.99 384.23 1036.23 381.422C1031.47 378.615 1027.81 374.896 1025.24 370.267C1022.74 365.637 1021.5 360.629 1021.5 355.241C1021.5 349.473 1022.74 344.199 1025.24 339.417C1027.73 334.636 1031.36 330.804 1036.12 327.92C1040.88 325.036 1046.66 323.594 1053.46 323.594C1060.18 323.594 1065.93 325.036 1070.69 327.92C1075.45 330.804 1079.04 334.598 1081.45 339.304C1083.95 344.009 1085.19 349.055 1085.19 354.444C1085.19 356.644 1085.04 358.58 1084.74 360.249H1040.76C1041.07 364.271 1042.5 367.345 1045.07 369.47C1047.72 371.519 1050.7 372.543 1054.03 372.543C1056.67 372.543 1059.2 371.898 1061.62 370.608C1064.04 369.318 1065.7 367.573 1066.61 365.372L1082.02 369.697C1079.68 374.403 1076.01 378.235 1071.03 381.195C1066.12 384.154 1060.26 385.634 1053.46 385.634ZM1040.31 349.093H1066.15C1065.78 345.299 1064.38 342.301 1061.96 340.1C1059.62 337.824 1056.71 336.685 1053.23 336.685C1049.76 336.685 1046.81 337.824 1044.39 340.1C1042.05 342.377 1040.69 345.375 1040.31 349.093Z" fill="black"/>
<path d="M1123.72 384.496V343.402H1116.13V329.628H1123.72V324.733C1123.72 317.296 1125.61 311.376 1129.39 306.975C1133.17 302.497 1138.19 300.258 1144.46 300.258C1149.45 300.258 1154.63 301.435 1159.99 303.787L1156.71 317.447C1155.5 316.916 1154.14 316.499 1152.62 316.195C1151.11 315.816 1149.75 315.626 1148.54 315.626C1144.09 315.626 1141.86 318.434 1141.86 324.05V329.628H1155.68V343.402H1141.86V384.496H1123.72Z" fill="black"/>
<path d="M1191.82 385.634C1185.01 385.634 1179.23 384.192 1174.47 381.309C1169.79 378.425 1166.2 374.63 1163.71 369.925C1161.21 365.22 1159.97 360.135 1159.97 354.671C1159.97 349.131 1161.21 344.009 1163.71 339.304C1166.2 334.598 1169.83 330.804 1174.59 327.92C1179.35 325.036 1185.09 323.594 1191.82 323.594C1198.54 323.594 1204.28 325.036 1209.04 327.92C1213.8 330.804 1217.43 334.598 1219.92 339.304C1222.42 344.009 1223.66 349.131 1223.66 354.671C1223.66 360.135 1222.42 365.22 1219.92 369.925C1217.43 374.63 1213.8 378.425 1209.04 381.309C1204.28 384.192 1198.54 385.634 1191.82 385.634ZM1178.55 354.671C1178.55 359.301 1179.8 363.057 1182.29 365.941C1184.86 368.825 1188.04 370.267 1191.82 370.267C1195.52 370.267 1198.62 368.825 1201.11 365.941C1203.68 363.057 1204.96 359.301 1204.96 354.671C1204.96 350.042 1203.68 346.286 1201.11 343.402C1198.62 340.518 1195.52 339.076 1191.82 339.076C1188.04 339.076 1184.86 340.518 1182.29 343.402C1179.8 346.286 1178.55 350.042 1178.55 354.671Z" fill="black"/>
<path d="M1270.4 340.328C1266.02 340.404 1262.05 341.125 1258.5 342.491C1254.95 343.857 1252.38 345.906 1250.79 348.638V384.496H1232.66V324.733H1249.32V336.799C1251.36 332.777 1254.01 329.628 1257.25 327.351C1260.5 325.074 1263.9 323.898 1267.46 323.822C1268.97 323.822 1269.95 323.86 1270.4 323.936V340.328Z" fill="black"/>
<path d="M629.78 516.862V436.039H684.412V452.431H648.368V469.848H678.064V484.988H648.368V516.862H629.78Z" fill="black"/>
<path d="M690.721 495.347V457.099H708.856V491.363C708.856 498.876 711.614 502.632 717.13 502.632C719.548 502.632 721.89 501.987 724.157 500.697C726.424 499.331 728.426 497.092 730.164 493.981V457.099H748.299V496.599C748.299 498.42 748.564 499.711 749.093 500.47C749.697 501.228 750.717 501.646 752.153 501.722V516.862C750.415 517.165 748.942 517.393 747.733 517.545C746.524 517.696 745.428 517.772 744.446 517.772C737.947 517.772 734.245 515.23 733.338 510.145L732.998 506.503C730.278 510.449 726.877 513.371 722.797 515.268C718.792 517.089 714.296 518 709.309 518C703.264 518 698.655 516.065 695.481 512.194C692.308 508.324 690.721 502.708 690.721 495.347Z" fill="black"/>
<path d="M800.553 513.674C798.06 514.737 795.189 515.723 791.939 516.634C788.766 517.545 785.554 518 782.305 518C779.283 518 776.525 517.507 774.031 516.52C771.538 515.458 769.535 513.75 768.024 511.398C766.513 509.045 765.757 505.934 765.757 502.063V470.873H758.163V457.099H765.757V438.088H783.892V457.099H796.02V470.873H783.892V495.802C783.892 497.775 784.383 499.217 785.365 500.128C786.348 500.963 787.595 501.38 789.106 501.38C790.466 501.38 791.864 501.152 793.299 500.697C794.735 500.242 795.982 499.749 797.04 499.217L800.553 513.674Z" fill="black"/>
<path d="M807.053 495.347V457.099H825.188V491.363C825.188 498.876 827.946 502.632 833.462 502.632C835.88 502.632 838.223 501.987 840.489 500.697C842.756 499.331 844.759 497.092 846.497 493.981V457.099H864.632V496.599C864.632 498.42 864.896 499.711 865.425 500.47C866.03 501.228 867.05 501.646 868.485 501.722V516.862C866.747 517.165 865.274 517.393 864.065 517.545C862.856 517.696 861.76 517.772 860.778 517.772C854.28 517.772 850.577 515.23 849.67 510.145L849.33 506.503C846.61 510.449 843.21 513.371 839.129 515.268C835.124 517.089 830.629 518 825.641 518C819.596 518 814.987 516.065 811.813 512.194C808.64 508.324 807.053 502.708 807.053 495.347Z" fill="black"/>
<path d="M916.424 472.694C912.042 472.77 908.075 473.491 904.523 474.857C900.972 476.223 898.403 478.272 896.816 481.004V516.862H878.681V457.099H895.342V469.165C897.383 465.143 900.027 461.993 903.277 459.717C906.526 457.44 909.926 456.264 913.477 456.188C914.989 456.188 915.971 456.226 916.424 456.302V472.694Z" fill="black"/>
<path d="M952.069 518C945.344 518 939.601 516.596 934.841 513.788C930.081 510.98 926.416 507.262 923.847 502.632C921.353 498.003 920.106 492.994 920.106 487.606C920.106 481.839 921.353 476.564 923.847 471.783C926.34 467.002 929.967 463.17 934.728 460.286C939.488 457.402 945.269 455.96 952.069 455.96C958.794 455.96 964.537 457.402 969.297 460.286C974.058 463.17 977.647 466.964 980.065 471.669C982.559 476.375 983.805 481.421 983.805 486.809C983.805 489.01 983.654 490.945 983.352 492.615H939.375C939.677 496.637 941.113 499.711 943.682 501.836C946.327 503.885 949.311 504.909 952.636 504.909C955.281 504.909 957.812 504.264 960.23 502.974C962.648 501.684 964.31 499.938 965.217 497.737L980.632 502.063C978.289 506.768 974.625 510.601 969.638 513.56C964.726 516.52 958.87 518 952.069 518ZM938.921 481.459H964.764C964.386 477.665 962.988 474.667 960.57 472.466C958.228 470.19 955.318 469.051 951.842 469.051C948.367 469.051 945.42 470.19 943.002 472.466C940.659 474.743 939.299 477.741 938.921 481.459Z" fill="black"/>
<path d="M1089.21 436.039V516.862H1070.62V483.736H1038.54V516.862H1019.95V436.039H1038.54V467.344H1070.62V436.039H1089.21Z" fill="black"/>
<path d="M1130.61 518C1123.88 518 1118.14 516.596 1113.38 513.788C1108.62 510.98 1104.95 507.262 1102.39 502.632C1099.89 498.003 1098.64 492.994 1098.64 487.606C1098.64 481.839 1099.89 476.564 1102.39 471.783C1104.88 467.002 1108.51 463.17 1113.27 460.286C1118.03 457.402 1123.81 455.96 1130.61 455.96C1137.33 455.96 1143.08 457.402 1147.84 460.286C1152.6 463.17 1156.19 466.964 1158.6 471.669C1161.1 476.375 1162.34 481.421 1162.34 486.809C1162.34 489.01 1162.19 490.945 1161.89 492.615H1117.91C1118.22 496.637 1119.65 499.711 1122.22 501.836C1124.87 503.885 1127.85 504.909 1131.17 504.909C1133.82 504.909 1136.35 504.264 1138.77 502.974C1141.19 501.684 1142.85 499.938 1143.76 497.737L1159.17 502.063C1156.83 506.768 1153.16 510.601 1148.18 513.56C1143.26 516.52 1137.41 518 1130.61 518ZM1117.46 481.459H1143.3C1142.92 477.665 1141.53 474.667 1139.11 472.466C1136.77 470.19 1133.86 469.051 1130.38 469.051C1126.91 469.051 1123.96 470.19 1121.54 472.466C1119.2 474.743 1117.84 477.741 1117.46 481.459Z" fill="black"/>
<path d="M1166.82 498.99C1166.82 495.043 1167.92 491.59 1170.11 488.631C1172.3 485.671 1175.32 483.356 1179.18 481.687C1183.03 479.941 1187.45 479.069 1192.44 479.069C1194.86 479.069 1197.24 479.296 1199.58 479.752C1201.92 480.131 1203.96 480.7 1205.7 481.459V478.841C1205.7 472.087 1201.73 468.71 1193.8 468.71C1190.47 468.71 1187.34 469.279 1184.39 470.417C1181.52 471.555 1178.46 473.187 1175.21 475.312L1169.77 463.701C1177.63 458.54 1186.24 455.96 1195.61 455.96C1204.53 455.96 1211.44 458.123 1216.35 462.449C1221.34 466.699 1223.83 472.884 1223.83 481.004V496.599C1223.83 498.42 1224.1 499.711 1224.63 500.47C1225.23 501.228 1226.25 501.646 1227.69 501.722V516.862C1226.1 517.165 1224.67 517.393 1223.38 517.545C1222.1 517.696 1220.96 517.772 1219.98 517.772C1216.58 517.772 1213.97 517.089 1212.16 515.723C1210.42 514.357 1209.33 512.498 1208.87 510.145L1208.53 507.527C1205.89 510.942 1202.71 513.56 1199.01 515.382C1195.31 517.127 1191.49 518 1187.56 518C1183.64 518 1180.08 517.165 1176.91 515.496C1173.81 513.826 1171.36 511.587 1169.54 508.779C1167.73 505.896 1166.82 502.632 1166.82 498.99ZM1202.87 501.266C1204.76 499.749 1205.7 498.193 1205.7 496.599V491.249C1204.11 490.642 1202.37 490.186 1200.49 489.883C1198.67 489.503 1197.01 489.314 1195.5 489.314C1192.1 489.314 1189.3 490.073 1187.11 491.59C1185 493.108 1183.94 495.043 1183.94 497.396C1183.94 499.445 1184.73 501.228 1186.32 502.746C1187.98 504.188 1190.17 504.909 1192.89 504.909C1194.71 504.909 1196.52 504.568 1198.33 503.885C1200.15 503.202 1201.66 502.329 1202.87 501.266Z" fill="black"/>
<path d="M1236.75 433.762H1254.88V495.575C1254.88 498.079 1255.34 499.862 1256.24 500.925C1257.15 501.987 1258.44 502.519 1260.1 502.519C1261.23 502.519 1262.36 502.367 1263.5 502.063C1264.71 501.684 1265.76 501.266 1266.67 500.811L1269.05 514.471C1266.78 515.534 1264.18 516.368 1261.23 516.976C1258.28 517.583 1255.53 517.886 1252.96 517.886C1247.82 517.886 1243.81 516.52 1240.94 513.788C1238.15 511.056 1236.75 507.11 1236.75 501.949V433.762Z" fill="black"/>
<path d="M1312.37 513.674C1309.88 514.737 1307.01 515.723 1303.76 516.634C1300.58 517.545 1297.37 518 1294.12 518C1291.1 518 1288.34 517.507 1285.85 516.52C1283.36 515.458 1281.35 513.75 1279.84 511.398C1278.33 509.045 1277.57 505.934 1277.57 502.063V470.873H1269.98V457.099H1277.57V438.088H1295.71V457.099H1307.84V470.873H1295.71V495.802C1295.71 497.775 1296.2 499.217 1297.18 500.128C1298.17 500.963 1299.41 501.38 1300.92 501.38C1302.28 501.38 1303.68 501.152 1305.12 500.697C1306.55 500.242 1307.8 499.749 1308.86 499.217L1312.37 513.674Z" fill="black"/>
<path d="M1376.79 516.862H1358.65V483.28C1358.65 479.41 1357.86 476.564 1356.27 474.743C1354.76 472.922 1352.72 472.011 1350.15 472.011C1348.04 472.011 1345.66 472.997 1343.01 474.971C1340.44 476.868 1338.63 479.41 1337.57 482.597V516.862H1319.44V433.762H1337.57V467.116C1339.69 463.549 1342.56 460.817 1346.19 458.92C1349.81 456.947 1353.78 455.96 1358.09 455.96C1362.09 455.96 1365.34 456.643 1367.84 458.009C1370.33 459.375 1372.22 461.197 1373.5 463.473C1374.79 465.674 1375.66 468.103 1376.11 470.759C1376.56 473.415 1376.79 476.033 1376.79 478.613V516.862Z" fill="black"/>
<path fill-rule="evenodd" clip-rule="evenodd" d="M279.039 103.522L250.274 72.2625C228.178 48.1189 197.255 33.442 164.11 31.536C95.4014 27.4697 35.7796 78.8703 31.661 145.647C29.6998 177.796 41.0096 209.564 62.9755 233.644L279.366 470.633L495.756 233.644C517.722 209.564 529.032 177.796 527.071 145.647C522.952 78.8703 463.331 27.4697 394.622 31.4724C361.477 33.3785 330.489 48.1189 308.458 72.199L279.693 103.459C316.041 103.522 348.859 117.881 372.721 141.008C396.583 164.199 411.423 196.285 411.423 231.738C411.423 248.638 407.958 265.285 401.355 280.788C396.321 292.542 389.588 303.534 381.22 313.382C375.598 319.989 368.603 326.661 362.653 333.205L279.431 424.506L192.091 328.884C187.057 323.357 181.696 318.464 176.924 312.746C168.883 303.089 162.28 292.351 157.442 280.851C150.839 265.412 147.374 248.766 147.374 231.801C147.374 196.348 162.149 164.263 186.011 141.072C209.873 117.945 242.756 103.586 279.039 103.522ZM279.431 195.522C299.828 195.522 316.433 211.597 316.433 231.484C316.433 251.307 299.894 267.445 279.431 267.445C259.034 267.445 242.429 251.371 242.429 231.484C242.429 211.597 258.969 195.522 279.431 195.522ZM279.431 298.006C241.579 298.006 210.919 268.208 210.919 231.42C210.919 194.633 241.579 164.834 279.431 164.834C317.283 164.834 347.944 194.633 347.944 231.42C347.944 268.208 317.218 298.006 279.431 298.006ZM279.431 378.379L341.211 310.713C346.244 305.249 351.409 299.721 356.247 294.194C362.915 286.569 368.08 278.056 371.871 269.034C376.84 257.406 379.455 244.763 379.455 231.801C379.455 204.989 368.276 180.655 350.167 163.119C332.058 145.52 307.085 134.655 279.497 134.655C251.909 134.655 226.87 145.52 208.761 163.119C190.652 180.718 179.473 204.989 179.473 231.801C179.473 244.763 182.088 257.406 187.057 269.034C191.175 278.755 197.059 287.904 204.381 295.973C208.761 300.738 210.461 302.771 215.495 308.299L279.431 378.379ZM279.431 57.8399L284.988 51.931C312.576 21.7514 351.344 3.38953 392.857 0.975159C479.217 -4.04418 553.482 59.9366 558.647 143.868C561.131 184.149 547.01 223.796 519.487 254.039L279.431 516.76L39.4406 253.975C11.8525 223.732 -2.20311 184.149 0.281132 143.804C5.38036 59.873 79.6461 -4.10772 166.006 0.911622C207.519 3.32599 246.286 21.6244 273.875 51.8675L279.431 57.8399Z" fill="black"/>
</svg>
